<svg id="svg" xmlns="http://www.w3.org/2000/svg" xmlns:xlink="http://www.w3.org/1999/xlink" width="400" height="400" viewBox="0, 0, 400,400"><g id="svgg"><path id="path0" d="M266.017 1.317 C 237.872 10.677,224.410 55.418,232.886 111.421 C 235.387 127.948,250.320 172.145,253.403 172.145 C 254.042 172.145,269.054 169.073,273.816 167.967 C 280.278 166.467,295.310 162.132,298.882 160.738 C 300.722 160.020,302.855 159.250,303.621 159.027 C 306.326 158.240,316.788 153.658,322.694 150.673 C 355.765 133.957,374.099 110.379,375.308 83.008 C 377.157 41.154,335.499 5.278,316.717 32.549 C 313.783 36.809,313.088 36.648,310.270 31.058 C 303.815 18.257,294.709 7.701,286.351 3.334 L 281.616 0.860 274.930 0.718 C 270.498 0.624,267.494 0.826,266.017 1.317 M82.934 20.625 C 51.835 24.143,25.236 50.590,34.181 69.099 C 35.826 72.502,39.548 76.680,42.929 78.918 C 46.043 80.978,45.778 81.427,39.730 84.351 C -1.569 104.317,-3.678 135.548,34.971 154.834 C 69.199 171.914,128.218 168.675,175.786 147.106 L 179.532 145.408 179.157 142.098 C 178.378 135.211,174.700 118.206,171.557 106.964 C 170.658 103.747,169.644 100.111,169.305 98.886 C 155.584 49.318,119.367 16.502,82.934 20.625 M150.139 226.036 C 136.282 229.521,109.279 240.794,94.708 249.177 C 42.845 279.014,26.611 324.978,54.621 362.674 C 71.700 385.659,94.614 389.628,105.402 371.469 C 108.221 366.723,108.505 366.746,112.024 372.006 C 132.274 402.263,155.607 407.945,172.078 386.630 C 192.655 360.000,191.845 309.495,170.020 258.240 C 168.101 253.731,158.311 234.596,155.671 230.189 C 152.992 225.719,152.593 225.419,150.139 226.036 M288.301 231.535 C 267.550 233.581,250.034 237.096,233.426 242.545 C 221.574 246.434,222.282 246.005,222.295 249.286 C 222.327 257.407,226.051 279.633,229.555 292.614 C 230.155 294.838,231.178 298.658,231.828 301.103 C 242.129 339.845,266.798 368.446,295.543 374.976 C 336.627 384.307,382.267 345.188,356.987 322.311 C 355.108 320.611,353.363 319.220,353.108 319.220 C 351.771 319.220,352.930 317.375,354.735 316.632 C 391.586 301.457,402.091 279.770,383.059 258.157 C 367.213 240.162,323.981 228.016,288.301 231.535 " stroke="none" fill="#000000" fill-rule="evenodd"></path></g></svg>