<?xml version="1.0" standalone="no"?>
<!DOCTYPE svg PUBLIC "-//W3C//DTD SVG 20010904//EN"
 "http://www.w3.org/TR/2001/REC-SVG-20010904/DTD/svg10.dtd">
<svg version="1.0" xmlns="http://www.w3.org/2000/svg"
 width="294.000000pt" height="294.000000pt" viewBox="0 0 294.000000 294.000000"
 preserveAspectRatio="xMidYMid meet">
<metadata>
Created by potrace 1.15, written by Peter Selinger 2001-2017
</metadata>
<g transform="translate(0.000000,294.000000) scale(0.100000,-0.100000)"
fill="#000000" stroke="none">
<path d="M1915 2921 c-304 -76 -529 -306 -600 -611 -19 -84 -19 -257 0 -340
19 -80 57 -179 89 -228 l24 -37 -701 -702 -702 -703 115 -115 115 -114 145
139 c80 76 149 139 153 140 5 0 90 -80 188 -177 l180 -177 117 117 116 116
-184 180 -185 179 45 46 44 46 103 -102 103 -103 118 118 117 117 -103 102
-102 103 275 275 275 275 94 -46 c178 -87 384 -106 575 -52 252 71 453 263
545 521 30 84 31 93 31 252 0 159 -1 168 -31 252 -97 272 -307 463 -579 529
-104 25 -281 25 -380 0z m326 -327 c80 -24 126 -50 185 -106 105 -99 154 -210
154 -348 0 -138 -49 -249 -154 -348 -89 -84 -189 -123 -321 -123 -142 0 -257
51 -354 157 -163 178 -163 450 0 628 60 66 130 112 207 137 73 23 209 25 283
3z"/>
</g>
</svg>
