<svg id="svg" xmlns="http://www.w3.org/2000/svg" xmlns:xlink="http://www.w3.org/1999/xlink" width="400" height="514.4356955380578" viewBox="0, 0, 400,514.4356955380578"><g id="svgg"><path id="path0" d="M79.320 5.831 C 65.169 22.385,58.187 38.371,58.174 54.248 C 58.165 65.075,58.988 67.240,72.168 91.076 C 92.714 128.232,165.503 261.702,165.495 262.205 C 165.482 263.023,122.887 337.273,122.442 337.252 C 122.225 337.242,120.128 336.606,117.782 335.838 C 70.812 320.463,15.162 357.951,2.964 413.185 C -13.751 488.868,55.634 541.115,118.110 499.890 C 145.082 482.093,158.933 459.403,171.077 413.123 C 183.286 366.594,194.250 333.195,199.571 326.328 C 202.392 322.686,216.761 365.513,230.189 417.585 C 234.810 435.504,238.741 446.413,244.603 457.576 C 273.725 513.032,333.526 531.309,373.642 497.013 C 400.903 473.707,407.442 428.404,389.048 390.289 C 367.901 346.469,320.364 322.587,281.316 336.167 C 279.193 336.905,277.308 337.337,277.127 337.127 C 274.290 333.839,234.621 262.508,235.022 261.417 C 235.515 260.079,298.900 143.680,322.207 101.312 C 329.275 88.465,335.837 76.535,336.789 74.803 C 347.362 55.564,341.080 29.163,320.270 5.379 L 315.561 -0.003 257.969 100.786 C 226.294 156.220,200.207 201.575,200.000 201.575 C 199.793 201.575,173.707 156.220,142.032 100.787 C 110.356 45.354,84.398 0.014,84.346 0.031 C 84.294 0.048,82.033 2.658,79.320 5.831 M314.404 372.243 C 350.815 380.567,373.959 433.143,353.830 461.806 C 328.991 497.176,269.979 461.387,270.097 411.024 C 270.163 382.579,288.689 366.364,314.404 372.243 M104.202 371.939 C 139.077 381.023,138.482 437.406,103.224 464.656 C 72.523 488.383,38.845 473.046,38.845 435.338 C 38.845 398.427,74.206 364.126,104.202 371.939 " stroke="none" fill="#000000" fill-rule="evenodd"></path></g></svg>